<svg width="14" height="14" viewBox="0 0 14 14" fill="none" xmlns="http://www.w3.org/2000/svg">
<path d="M7 13C10.3137 13 13 10.3137 13 7C13 3.68629 10.3137 1 7 1C3.68629 1 1 3.68629 1 7C1 10.3137 3.68629 13 7 13Z" fill="#5E6AD2" stroke="#5E6AD2" stroke-width="2"/>
<path d="M10 7C10 5.34315 8.65685 4 7 4C5.34315 4 4 5.34315 4 7C4 8.65685 5.34315 10 7 10C8.65685 10 10 8.65685 10 7Z" stroke="#5E6AD2" stroke-width="6" stroke-dasharray="18.85 100"/>
<path d="M10.951 4.24896C11.283 4.58091 11.283 5.11909 10.951 5.45104L5.95104 10.451C5.61909 10.783 5.0809 10.783 4.74896 10.451L2.74896 8.45104C2.41701 8.11909 2.41701 7.5809 2.74896 7.24896C3.0809 6.91701 3.61909 6.91701 3.95104 7.24896L5.35 8.64792L9.74896 4.24896C10.0809 3.91701 10.6191 3.91701 10.951 4.24896Z" fill="#FBFBFB"/>
</svg>
