<svg width="16" height="16" viewBox="0 0 16 16" fill="none" xmlns="http://www.w3.org/2000/svg">
<path opacity="0.9" d="M4.5 7.34375H2.75C2.50838 7.34375 2.3125 7.53963 2.3125 7.78125V8.21875C2.3125 8.46037 2.50838 8.65625 2.75 8.65625H4.5C4.74162 8.65625 4.9375 8.46037 4.9375 8.21875V7.78125C4.9375 7.53963 4.74162 7.34375 4.5 7.34375Z" fill="#5E5E5F"/>
<path opacity="0.9" d="M8.875 7.34375H7.125C6.88338 7.34375 6.6875 7.53963 6.6875 7.78125V8.21875C6.6875 8.46037 6.88338 8.65625 7.125 8.65625H8.875C9.11662 8.65625 9.3125 8.46037 9.3125 8.21875V7.78125C9.3125 7.53963 9.11662 7.34375 8.875 7.34375Z" fill="#5E5E5F"/>
<path opacity="0.9" d="M13.25 7.34375H11.5C11.2584 7.34375 11.0625 7.53963 11.0625 7.78125V8.21875C11.0625 8.46037 11.2584 8.65625 11.5 8.65625H13.25C13.4916 8.65625 13.6875 8.46037 13.6875 8.21875V7.78125C13.6875 7.53963 13.4916 7.34375 13.25 7.34375Z" fill="#5E5E5F"/>
</svg>
